<?xml version="1.0" encoding="UTF-8" standalone="no"?><!DOCTYPE svg PUBLIC "-//W3C//DTD SVG 1.1//EN" "http://www.w3.org/Graphics/SVG/1.1/DTD/svg11.dtd"><svg width="100%" height="100%" viewBox="0 0 3209 3209" version="1.1" xmlns="http://www.w3.org/2000/svg" xmlns:xlink="http://www.w3.org/1999/xlink" xml:space="preserve" xmlns:serif="http://www.serif.com/" style="fill-rule:evenodd;clip-rule:evenodd;stroke-linejoin:round;stroke-miterlimit:2;"><path id="Desktop" d="M1604.17,0c885.363,0 1604.17,718.803 1604.17,1604.17c0,885.363 -718.803,1604.17 -1604.17,1604.17c-885.364,0 -1604.17,-718.803 -1604.17,-1604.17c0,-885.364 718.803,-1604.17 1604.17,-1604.17Zm-620.385,705.946c-0.772,-5.499 -1.164,-11.042 -1.164,-16.625c0,-148.88 278.507,-269.751 621.549,-269.751c343.042,0 621.548,120.871 621.548,269.751c0,7.846 -0.773,15.614 -2.293,23.311c227.462,79.797 373.015,201.855 373.015,338.551c0,72.742 -41.218,141.34 -114.045,201.615c186.569,93.274 300.096,216.436 300.096,351.369c-0,131.819 -108.348,252.404 -287.388,344.91c77.799,61.847 122.009,132.737 122.009,208.074c0,140.562 -153.903,265.647 -392.558,345.236c0.773,5.499 1.164,11.043 1.164,16.626c0,148.879 -278.506,269.75 -621.548,269.75c-343.042,0 -621.549,-120.871 -621.549,-269.75c0,-7.846 0.774,-15.615 2.293,-23.312c-227.462,-79.796 -373.015,-201.854 -373.015,-338.55c0,-72.743 41.219,-141.341 114.046,-201.616c-186.57,-93.273 -300.096,-216.435 -300.096,-351.368c-0,-131.82 108.347,-252.405 287.387,-344.911c-77.799,-61.847 -122.009,-132.737 -122.009,-208.073c-0,-140.563 153.903,-265.648 392.558,-345.237Zm1240.77,1796.44c-19.815,-141.149 -290.206,-253.125 -620.384,-253.125c-324.964,-0 -592.015,108.467 -619.256,246.439c172.142,60.394 391.207,96.579 629.592,96.579c229.476,-0 441.048,-33.531 610.048,-89.893Zm270.549,-553.31c-170.096,-135.221 -500.831,-227.056 -880.597,-227.056c-385.743,0 -720.898,94.748 -888.561,233.514c215.866,107.923 529.451,175.872 878.225,175.872c355.732,-0 674.857,-70.688 890.933,-182.33Zm-12.708,-696.279c-215.867,-107.922 -529.452,-175.872 -878.225,-175.872c-355.733,0 -674.858,70.688 -890.934,182.33c170.097,135.221 500.831,227.056 880.598,227.056c385.742,-0 720.898,-94.748 888.561,-233.514Zm-258.97,-540.166c-172.142,-60.393 -391.207,-96.579 -629.591,-96.579c-229.476,0 -441.049,33.531 -610.049,89.893c19.815,141.15 290.207,253.126 620.385,253.126c324.963,-0 592.014,-108.468 619.255,-246.44Z" style="fill:#fff;"/></svg>