<?xml version="1.0" standalone="no"?>
<!DOCTYPE svg PUBLIC "-//W3C//DTD SVG 20010904//EN"
 "http://www.w3.org/TR/2001/REC-SVG-20010904/DTD/svg10.dtd">
<svg version="1.0" xmlns="http://www.w3.org/2000/svg"
 width="700.000000pt" height="700.000000pt" viewBox="0 0 700.000000 700.000000"
 preserveAspectRatio="xMidYMid meet">
<metadata>
Created by potrace 1.14, written by Peter Selinger 2001-2017
</metadata>
<g transform="translate(0.000000,700.000000) scale(0.100000,-0.100000)"
fill="#000000" stroke="none">
<path d="M3278 6996 c-1 -2 -39 -6 -83 -10 -164 -12 -352 -44 -540 -90 -1001
-247 -1854 -940 -2306 -1873 -32 -68 -59 -125 -59 -127 0 -3 -11 -29 -24 -58
-60 -133 -155 -432 -181 -569 -3 -13 -11 -58 -20 -99 -29 -147 -35 -193 -52
-370 -16 -167 -9 -567 12 -717 10 -67 14 -99 20 -148 4 -27 10 -66 15 -85 5
-19 12 -48 14 -65 28 -156 114 -435 189 -615 219 -526 539 -963 993 -1355 99
-86 351 -263 479 -337 64 -37 344 -177 410 -204 114 -48 248 -96 381 -134 131
-39 300 -77 419 -94 22 -4 54 -9 70 -11 31 -5 63 -9 195 -22 151 -15 556 -8
695 12 17 2 48 7 70 9 59 7 111 16 195 32 41 8 86 17 100 20 14 3 68 16 120
30 1081 290 1956 1068 2365 2104 65 166 130 372 151 480 3 14 11 52 19 85 7
33 16 78 19 100 4 23 8 50 10 60 12 66 20 134 35 300 8 89 6 484 -2 555 -3 25
-9 72 -12 105 -54 534 -276 1121 -600 1587 -195 282 -472 573 -741 780 -302
234 -676 433 -1029 549 -166 55 -419 117 -545 134 -19 3 -46 7 -60 10 -13 2
-52 7 -86 11 -33 3 -74 8 -90 10 -32 5 -540 14 -546 10z m457 -920 c173 -14
332 -40 482 -81 379 -103 619 -283 636 -477 6 -72 2 -74 -104 -40 -147 47
-401 104 -564 127 -27 4 -61 9 -75 11 -23 3 -76 9 -175 19 -226 24 -698 24
-910 1 -16 -2 -61 -7 -100 -10 -38 -4 -81 -9 -95 -11 -50 -8 -266 -45 -295
-50 -16 -3 -48 -11 -70 -17 -22 -5 -49 -12 -60 -14 -11 -2 -74 -19 -140 -38
-135 -38 -132 -33 -89 -123 65 -135 247 -259 505 -344 114 -37 310 -81 419
-94 30 -4 66 -9 80 -12 46 -9 524 -11 600 -3 120 14 164 20 185 24 11 2 38 6
60 10 230 40 473 129 616 227 104 70 202 190 202 246 0 19 18 16 102 -17 457
-182 720 -439 717 -702 -1 -37 -6 -86 -13 -110 -25 -93 -99 -209 -183 -286
-26 -24 -46 -45 -44 -46 2 -2 32 -19 68 -38 144 -80 229 -141 343 -248 379
-354 295 -796 -213 -1127 -41 -27 -92 -57 -113 -68 -57 -30 -65 -43 -37 -62
64 -45 146 -145 188 -229 123 -245 15 -503 -302 -714 -106 -71 -254 -145 -396
-199 -98 -37 -105 -41 -106 -68 -4 -95 -36 -165 -112 -241 -84 -84 -235 -171
-393 -225 -87 -30 -300 -84 -362 -91 -23 -3 -75 -10 -116 -16 -208 -30 -534
-30 -741 0 -41 6 -88 12 -105 15 -57 7 -190 36 -260 56 -388 112 -610 287
-618 486 l-3 57 -101 42 c-465 192 -708 434 -706 704 2 132 54 242 175 364 37
38 67 70 66 71 -2 1 -48 28 -104 59 -261 149 -446 339 -515 531 -14 41 -22 91
-25 160 -3 88 0 109 24 180 40 119 85 188 197 301 98 99 255 215 352 260 24
10 43 22 43 25 0 4 -21 26 -47 49 -304 272 -278 610 67 869 138 104 270 175
455 246 55 21 104 42 108 46 5 4 10 28 12 55 16 200 275 388 678 489 73 18
155 36 182 39 47 6 69 10 139 21 16 2 79 7 140 11 61 4 112 7 113 8 5 5 256
-2 338 -8z"/>
<path d="M3208 4645 c-1 -1 -52 -6 -113 -10 -60 -3 -121 -8 -135 -10 -14 -1
-56 -6 -93 -9 -37 -4 -76 -9 -85 -11 -9 -1 -39 -6 -67 -9 -27 -4 -61 -9 -75
-11 -52 -11 -75 -15 -115 -21 -22 -3 -71 -12 -110 -20 -38 -9 -78 -17 -87 -19
-214 -45 -532 -155 -722 -248 l-49 -24 54 -39 c132 -97 324 -189 550 -264 89
-30 222 -66 273 -76 16 -3 33 -7 36 -9 4 -3 25 -7 46 -11 22 -3 55 -9 74 -14
29 -7 115 -21 285 -45 68 -10 165 -18 340 -30 74 -5 427 -5 515 -1 123 7 245
17 265 21 11 3 45 7 75 10 46 4 189 26 265 39 277 50 557 138 774 244 106 51
282 160 296 182 12 19 -274 136 -474 195 -230 68 -531 131 -726 151 -27 3 -61
7 -74 9 -13 2 -61 7 -105 11 -45 3 -97 8 -116 11 -39 5 -696 13 -702 8z"/>
<path d="M3397 3244 c-1 -1 -60 -5 -132 -9 -151 -8 -188 -10 -270 -20 -33 -3
-78 -8 -100 -11 -22 -2 -65 -9 -95 -14 -30 -5 -71 -12 -90 -15 -381 -61 -772
-201 -1016 -361 -117 -77 -118 -78 -47 -109 204 -91 375 -150 593 -205 243
-61 451 -96 735 -126 245 -25 785 -25 1050 0 431 42 850 137 1176 267 112 44
227 97 233 107 7 12 -152 113 -274 173 -240 119 -594 223 -915 269 -44 6 -91
13 -105 15 -14 2 -52 7 -85 10 -33 4 -76 8 -95 10 -86 10 -555 25 -563 19z"/>
<path d="M3468 2095 c-2 -2 -64 -5 -138 -9 -153 -6 -369 -36 -490 -67 -266
-67 -469 -166 -587 -285 -48 -48 -103 -139 -103 -170 0 -21 366 -120 556 -150
20 -3 46 -8 58 -10 11 -2 41 -7 66 -10 25 -3 56 -7 70 -9 254 -40 763 -50
1055 -21 119 12 173 18 196 22 14 2 43 6 65 9 21 2 50 7 64 9 14 3 41 8 60 11
19 2 78 14 130 25 52 12 106 23 120 26 35 7 42 9 158 44 71 21 102 35 102 46
0 59 -104 195 -200 261 -131 90 -364 180 -565 219 -11 2 -31 6 -45 9 -14 3
-41 7 -60 10 -19 3 -66 9 -105 15 -38 6 -126 13 -195 16 -69 3 -144 6 -167 8
-24 1 -44 2 -45 1z"/>
</g>
</svg>
